<?xml version="1.0" encoding="utf-8"?>
<!-- Generator: Adobe Illustrator 23.0.5, SVG Export Plug-In . SVG Version: 6.00 Build 0)  -->
<svg version="1.1" xmlns="http://www.w3.org/2000/svg" xmlns:xlink="http://www.w3.org/1999/xlink" x="0px" y="0px"
	 viewBox="0 0 595.3 304" style="enable-background:new 0 0 595.3 304;" xml:space="preserve">
<style type="text/css">
	.st0{fill:#FFFFFF;}
	.st1{clip-path:url(#SVGID_2_);}
	.st2{fill:#ED1C24;}
</style>
<g id="Layer_2">
</g>
<g id="Layer_1">
	<title>logo</title>
	<polygon class="st0" points="38.8,103.7 38.8,109.8 38.8,141.1 38.8,147.2 57.5,156.8 57.5,141.1 57.5,109.8 57.5,94.2 	"/>
	<polygon class="st0" points="38.8,166.4 38.8,172.5 38.8,203.8 38.8,211 57.5,220.6 57.5,203.8 57.5,172.5 57.5,156.8 	"/>
	<polygon class="st0" points="320.1,94.2 306.9,94.2 290.7,94.2 290.7,94.2 274.4,94.2 261.3,94.2 245.6,94.2 259.9,110.3 
		261.6,110.3 274.7,110.3 280.8,110.3 290.7,102.1 300.5,110.3 306.6,110.3 319.8,110.3 321.4,110.3 335.7,94.2 	"/>
	<polygon class="st0" points="132.9,103.7 132.9,109.8 132.9,141.1 132.9,147.2 114.2,156.8 114.2,141.1 114.2,109.8 114.2,94.2 	
		"/>
	<polygon class="st0" points="132.9,166.4 132.9,172.5 132.9,204 123.5,211.2 114.2,203.8 114.2,172.5 114.2,156.8 	"/>
	<polygon class="st0" points="180.4,103.7 180.4,109.8 180.4,141.1 180.4,147.2 199.1,156.8 199.1,141.1 199.1,109.8 199.1,94.2 	
		"/>
	<polygon class="st0" points="180.4,166.4 180.4,172.5 180.4,204 189.8,211.2 199.1,203.8 199.1,172.5 199.1,156.8 	"/>
	<polygon class="st0" points="290.7,158.1 281.3,165.4 281.3,174.8 281.3,180.9 281.3,196.9 281.3,203 281.3,213.3 290.7,220.6 
		300,213.1 300,206.6 300,196.9 300,180.9 300,172.7 300,165.5 	"/>
	<polygon class="st0" points="290.7,106.9 281.3,114.1 281.3,118.4 281.3,134.4 281.3,140.5 281.3,150.8 290.7,158.1 300,150.6 
		300,144.1 300,134.4 300,118.4 300,114.3 	"/>
	<polygon class="st0" points="186.3,212.5 175.6,220.6 137.4,220.6 126.6,212.5 135.6,205.7 177.3,205.7 	"/>
	<g>
		<defs>
			<rect id="SVGID_1_" y="0" width="595.3" height="304"/>
		</defs>
		<clipPath id="SVGID_2_">
			<use xlink:href="#SVGID_1_"  style="overflow:visible;"/>
		</clipPath>
		<g class="st1">
			<path class="st0" d="M562.2,77.1c0,0-19.6-2.3-41.5,14.8c-21.9,17.1-35.1,19.7-42.9,25.6c-7.8,5.9-10.7,11.8-10.7,17.9
				c0,6.1,4.7,12.7,21.3,16.9S512,166.2,512,170c0,3.8-9,33.5-41.1,52.1c39.1-13,51.1-21,62.8-44.7c7.4-15,10.4-36.7,10.4-36.7
				c-6.9,2.1-14.2,2.9-21.4,2.3c-13-0.8-22.1-7.1-21.4-15s9.9-13.7,16-18.3c6.1-4.6,10.4-11.5,14.8-15.5
				C536.5,90.1,549,79.9,562.2,77.1"/>
			<path class="st0" d="M521.4,53.4l-0.9-0.5l0.6,0.3L521.4,53.4"/>
			<path class="st2" d="M536,239.5c-0.4,0.6-0.8,1.2-1.2,1.8c-1.6,1.2-3.2,2.4-4.9,3.5l0,0c-20.7,14.1-45.2,21.6-70.2,21.5
				c-66.5,0-120.5-51.5-120.5-114.7S393.2,36.8,459.7,36.8c21.4-0.1,42.5,5.4,61.2,16h0.2l0.9,0.5c5.9,3.5,7.9,11.1,4.4,17.1
				c-3.5,5.9-11.1,7.9-17.1,4.4h-0.1l0,0c-15.1-8.5-32.1-13-49.5-13c-52.7,0-95.6,40.3-95.6,89.8s42.9,89.8,95.6,89.8
				c20.2,0.1,39.9-6,56.6-17.5c0.8-0.6,1.7-1.2,2.5-1.9c3.9-2.1,8.6-2,12.5,0.2C537.3,225.7,539.4,233.3,536,239.5"/>
		</g>
	</g>
</g>
</svg>
