<svg id="Layer_1" data-name="Layer 1" xmlns="http://www.w3.org/2000/svg" xmlns:xlink="http://www.w3.org/1999/xlink" viewBox="0 0 595.28 304"><defs><style>.cls-1{fill:none;}.cls-2{fill:#fff;}.cls-3{clip-path:url(#clip-path);}.cls-4{fill:#ed1c24;}</style><clipPath id="clip-path"><rect class="cls-1" width="595.28" height="304"/></clipPath></defs><title>logo</title><polygon class="cls-2" points="175.73 122.03 175.73 125.29 175.73 142 175.73 145.25 185.71 150.35 185.71 142 185.71 125.29 185.71 116.94 175.73 122.03"/><polygon class="cls-2" points="175.73 155.44 175.73 158.7 175.73 175.4 175.73 179.27 185.71 184.36 185.71 175.4 185.71 158.7 185.71 150.35 175.73 155.44"/><polygon class="cls-2" points="325.73 116.94 318.71 116.94 310.06 116.94 310.06 116.94 301.4 116.94 294.38 116.94 286.03 116.94 293.65 125.55 294.53 125.55 301.56 125.55 304.81 125.55 310.06 121.16 315.3 125.55 318.56 125.55 325.58 125.55 326.47 125.55 334.08 116.94 325.73 116.94"/><polygon class="cls-2" points="225.91 122.03 225.91 125.29 225.91 142 225.91 145.25 215.93 150.35 215.93 142 215.93 125.29 215.93 116.94 225.91 122.03"/><polygon class="cls-2" points="225.91 155.44 225.91 158.7 225.91 175.5 220.92 179.37 215.93 175.4 215.93 158.7 215.93 150.35 225.91 155.44"/><polygon class="cls-2" points="251.27 122.03 251.27 125.29 251.27 142 251.27 145.25 261.25 150.35 261.25 142 261.25 125.29 261.25 116.94 251.27 122.03"/><polygon class="cls-2" points="251.27 155.44 251.27 158.7 251.27 175.5 256.26 179.37 261.25 175.4 261.25 158.7 261.25 150.35 251.27 155.44"/><polygon class="cls-2" points="310.06 151.03 305.07 154.91 305.07 159.92 305.07 163.18 305.07 171.71 305.07 174.97 305.07 180.49 310.06 184.36 315.05 180.39 315.05 176.93 315.05 171.71 315.05 163.18 315.05 158.85 315.05 155.01 310.06 151.03"/><polygon class="cls-2" points="310.06 123.72 305.07 127.59 305.07 129.85 305.07 138.38 305.07 141.64 305.07 147.16 310.06 151.03 315.05 147.06 315.05 143.6 315.05 138.38 315.05 129.85 315.05 127.69 310.06 123.72"/><polygon class="cls-2" points="254.4 180.06 248.67 184.36 228.31 184.36 222.59 180.06 227.38 176.41 249.6 176.41 254.4 180.06"/><g class="cls-3"><path class="cls-2" d="M454.85,107.85s-10.46-1.23-22.13,7.87S414,126.25,409.84,129.37s-5.71,6.31-5.71,9.57,2.51,6.79,11.34,9,12.63,7.4,12.63,9.44-4.82,17.86-21.93,27.77c20.84-6.93,27.26-11.19,33.47-23.83,3.94-8,5.57-19.56,5.57-19.56A31.11,31.11,0,0,1,433.8,143c-6.92-.41-11.81-3.81-11.4-8s5.29-7.33,8.55-9.77,5.57-6.11,7.88-8.29,9-7.6,16-9.09"/><path class="cls-2" d="M433.1,95.19l-.48-.27.31.17.17.1"/><path class="cls-4" d="M440.86,194.43a6.27,6.27,0,0,1-.65.94c-.84.64-1.71,1.27-2.59,1.87h0a66.09,66.09,0,0,1-37.44,11.49c-35.45,0-64.28-27.45-64.28-61.18s28.83-61.19,64.28-61.19a66.2,66.2,0,0,1,32.64,8.51l.1,0,.48.27a6.64,6.64,0,1,1-6.76,11.44l-.06,0s0,0,0,0a53.25,53.25,0,0,0-26.37-6.91c-28.11,0-51,21.48-51,47.89s22.87,47.88,51,47.88a52.9,52.9,0,0,0,30.17-9.31c.45-.31.89-.63,1.33-1a6.78,6.78,0,0,1,6.64.12,6.71,6.71,0,0,1,2.55,9.14"/><rect class="cls-2" x="226.69" y="223.89" width="1.66" height="13.65"/><path class="cls-2" d="M233,223.89v9.17a3.27,3.27,0,0,0,.76,2.26,3.3,3.3,0,0,0,4.44,0,3.27,3.27,0,0,0,.76-2.26v-9.17h1.66v9.17a5.4,5.4,0,0,1-.32,1.87,4.21,4.21,0,0,1-.94,1.48,4.41,4.41,0,0,1-1.47,1,5.39,5.39,0,0,1-3.82,0,4.41,4.41,0,0,1-1.47-1,4.07,4.07,0,0,1-.94-1.48,5.4,5.4,0,0,1-.32-1.87v-9.17Z"/><polygon class="cls-2" points="242.31 223.89 250.99 223.89 250.99 225.45 247.48 225.45 247.48 237.54 245.82 237.54 245.82 225.45 242.31 225.45 242.31 223.89"/><path class="cls-2" d="M260.28,233.51a5.27,5.27,0,0,0,1.86,1.89,4.87,4.87,0,0,0,2.5.68,5.89,5.89,0,0,0,1.78-.25,5.29,5.29,0,0,0,1.47-.72,4.77,4.77,0,0,0,1.13-1.06v2.19a5.92,5.92,0,0,1-1.87,1.13,7.51,7.51,0,0,1-2.51.37,6.71,6.71,0,0,1-2.66-.52,6.48,6.48,0,0,1-2.18-1.46,6.9,6.9,0,0,1-1.46-2.23,7.71,7.71,0,0,1,0-5.62,6.8,6.8,0,0,1,1.46-2.23,6.66,6.66,0,0,1,2.18-1.47,6.89,6.89,0,0,1,2.66-.51,7.27,7.27,0,0,1,2.51.37A5.58,5.58,0,0,1,269,225.2v2.18a5,5,0,0,0-1.13-1.06,5.27,5.27,0,0,0-1.47-.71,5.89,5.89,0,0,0-1.78-.26,4.78,4.78,0,0,0-2.5.69,5.16,5.16,0,0,0-1.86,1.88,5.86,5.86,0,0,0,0,5.59"/><path class="cls-2" d="M271.69,230.64a4.48,4.48,0,0,1,1.66-1.66,4.71,4.71,0,0,1,2.36-.6,4.64,4.64,0,0,1,2.37.6,4.48,4.48,0,0,1,1.66,1.66,5.09,5.09,0,0,1,0,4.83,4.48,4.48,0,0,1-1.66,1.66,4.55,4.55,0,0,1-2.37.61,4.61,4.61,0,0,1-2.36-.61,4.48,4.48,0,0,1-1.66-1.66,5,5,0,0,1,0-4.83m1.36,4.07a3,3,0,0,0,1.09,1.15,3.21,3.21,0,0,0,3.14,0,3,3,0,0,0,1.1-1.15,3.41,3.41,0,0,0,.4-1.65,3.49,3.49,0,0,0-.4-1.67,2.94,2.94,0,0,0-1.1-1.14,3.21,3.21,0,0,0-3.14,0,2.92,2.92,0,0,0-1.09,1.14,3.38,3.38,0,0,0-.4,1.67,3.3,3.3,0,0,0,.4,1.65"/><path class="cls-2" d="M294.79,237.54h-1.56v-5.46a2.76,2.76,0,0,0-.42-1.69,1.52,1.52,0,0,0-1.3-.55,2.28,2.28,0,0,0-1.11.26,1.85,1.85,0,0,0-.72.77,2.67,2.67,0,0,0-.26,1.21v5.46h-1.56v-5.46a2.76,2.76,0,0,0-.42-1.69,1.51,1.51,0,0,0-1.29-.55,2.28,2.28,0,0,0-1.11.26,1.81,1.81,0,0,0-.73.77,2.67,2.67,0,0,0-.25,1.21v5.46H282.5v-9h1.56v1.31a2.61,2.61,0,0,1,2.48-1.5,2.84,2.84,0,0,1,1.61.44,2.56,2.56,0,0,1,1,1.23,3.22,3.22,0,0,1,1.17-1.25,3.06,3.06,0,0,1,1.6-.42,2.79,2.79,0,0,1,1.56.41,2.58,2.58,0,0,1,1,1.2,4.89,4.89,0,0,1,.34,1.9Z"/><path class="cls-2" d="M297.61,228.57h1.56v13.26h-1.56Zm8.47,7a4.32,4.32,0,0,1-1.61,1.62,4.46,4.46,0,0,1-2.23.57,3.4,3.4,0,0,1-2-.57,3.77,3.77,0,0,1-1.33-1.62,6.75,6.75,0,0,1,0-5,3.8,3.8,0,0,1,1.33-1.61,3.39,3.39,0,0,1,2-.56,4.45,4.45,0,0,1,2.23.56,4.36,4.36,0,0,1,1.61,1.61,5.51,5.51,0,0,1,0,5m-1.4-4.25a2.83,2.83,0,0,0-1.11-1.09,3.15,3.15,0,0,0-1.53-.37,2.72,2.72,0,0,0-1.35.37,3,3,0,0,0-1.09,1.09,3.45,3.45,0,0,0-.43,1.76,3.41,3.41,0,0,0,.43,1.75,2.92,2.92,0,0,0,1.09,1.09,2.72,2.72,0,0,0,1.35.37,3.15,3.15,0,0,0,1.53-.37,2.77,2.77,0,0,0,1.11-1.09,3.41,3.41,0,0,0,.42-1.75,3.45,3.45,0,0,0-.42-1.76"/><path class="cls-2" d="M310.87,235.69a1.76,1.76,0,0,0,1.43.58,2.47,2.47,0,0,0,1.2-.28,2,2,0,0,0,.8-.79,2.36,2.36,0,0,0,.28-1.17v-5.46h1.56v9h-1.56v-1.4a3.24,3.24,0,0,1-1.11,1.2,3,3,0,0,1-1.56.4,2.81,2.81,0,0,1-2.24-1,3.73,3.73,0,0,1-.84-2.55v-5.66h1.56V234a2.55,2.55,0,0,0,.48,1.66"/><path class="cls-2" d="M322.18,230H317.7v-1.46h4.48Zm-1.46,7.51h-1.56V225.45h1.56Z"/><path class="cls-2" d="M325,237.14a4,4,0,0,1-1.5-1.65,5.81,5.81,0,0,1,0-4.89,4,4,0,0,1,1.56-1.64,4.55,4.55,0,0,1,2.33-.58,4.39,4.39,0,0,1,2.27.55,3.69,3.69,0,0,1,1.46,1.59,5.65,5.65,0,0,1,.5,2.46,2.72,2.72,0,0,1,0,.28c0,.1,0,.16,0,.19H324v-1.33h6.44l-.63.9a1.54,1.54,0,0,0,.12-.3,1.28,1.28,0,0,0,.06-.35,2.87,2.87,0,0,0-.32-1.38,2.46,2.46,0,0,0-.89-.92,2.6,2.6,0,0,0-1.33-.33,2.94,2.94,0,0,0-1.53.38,2.51,2.51,0,0,0-1,1.09,4.16,4.16,0,0,0-.36,1.75,4.37,4.37,0,0,0,.33,1.79,2.4,2.4,0,0,0,1,1.13,2.87,2.87,0,0,0,1.56.39,3.29,3.29,0,0,0,1.62-.39,3.4,3.4,0,0,0,1.19-1.22l1.27.8a4.71,4.71,0,0,1-1.77,1.7,5.1,5.1,0,0,1-2.5.58,4.12,4.12,0,0,1-2.22-.6"/><path class="cls-2" d="M335.35,237.54h-1.56v-9h1.56Zm2.14-7.59a1.67,1.67,0,0,0-.64-.11,1.37,1.37,0,0,0-.92.29,1.51,1.51,0,0,0-.45.8,4.49,4.49,0,0,0-.13,1.15h-.7a4.42,4.42,0,0,1,.38-1.9,3.62,3.62,0,0,1,1-1.32,2,2,0,0,1,1.23-.48,3.34,3.34,0,0,1,.91.12,1.83,1.83,0,0,1,.77.5l-.86,1.29a2.57,2.57,0,0,0-.57-.34"/><path class="cls-2" d="M347.92,234.85a4,4,0,0,0,1.16,1,3,3,0,0,0,1.46.35,2.46,2.46,0,0,0,1.75-.61A2,2,0,0,0,353,234a2.33,2.33,0,0,0-.43-1.46,3.32,3.32,0,0,0-1.12-.89,14.28,14.28,0,0,0-1.48-.61c-.33-.12-.71-.27-1.13-.46a6.4,6.4,0,0,1-1.19-.72,3.57,3.57,0,0,1-.92-1.08,3.21,3.21,0,0,1-.36-1.58,3.41,3.41,0,0,1,.5-1.82,3.6,3.6,0,0,1,1.41-1.26,4.51,4.51,0,0,1,2.05-.45,4.26,4.26,0,0,1,1.94.42,4.7,4.7,0,0,1,1.41,1.07,5.4,5.4,0,0,1,.92,1.37l-1.43.82a5.37,5.37,0,0,0-.64-1,3.19,3.19,0,0,0-.95-.8,2.7,2.7,0,0,0-1.35-.31,2.18,2.18,0,0,0-1.62.53,1.71,1.71,0,0,0-.51,1.2,1.94,1.94,0,0,0,.3,1.05,2.88,2.88,0,0,0,1,.89,9.79,9.79,0,0,0,1.88.83,8.65,8.65,0,0,1,1.15.51,4.83,4.83,0,0,1,1.12.79,3.78,3.78,0,0,1,.85,1.15,3.61,3.61,0,0,1,.33,1.61,3.7,3.7,0,0,1-.34,1.62,3.64,3.64,0,0,1-.93,1.22,4.56,4.56,0,0,1-2.92,1.06,4.49,4.49,0,0,1-2.06-.48,5.52,5.52,0,0,1-1.65-1.27,7.12,7.12,0,0,1-1.16-1.68l1.32-.9a9.56,9.56,0,0,0,1,1.44"/><path class="cls-2" d="M356.85,230.64a4.44,4.44,0,0,1,1.67-1.66,4.94,4.94,0,0,1,4.72,0,4.48,4.48,0,0,1,1.66,1.66,5,5,0,0,1,0,4.83,4.48,4.48,0,0,1-1.66,1.66,4.87,4.87,0,0,1-4.72,0,4.44,4.44,0,0,1-1.67-1.66,5,5,0,0,1,0-4.83m1.36,4.07a3.11,3.11,0,0,0,4.24,1.15,3,3,0,0,0,1.09-1.15,3.41,3.41,0,0,0,.4-1.65,3.49,3.49,0,0,0-.4-1.67,2.92,2.92,0,0,0-1.09-1.14,3.09,3.09,0,0,0-1.57-.41,3,3,0,0,0-1.57.41,2.87,2.87,0,0,0-1.1,1.14,3.49,3.49,0,0,0-.4,1.67,3.41,3.41,0,0,0,.4,1.65"/><path class="cls-2" d="M368.76,234.71a2.95,2.95,0,0,0,2.67,1.56,4,4,0,0,0,1.35-.22,3.75,3.75,0,0,0,1.1-.6,2.45,2.45,0,0,0,.67-.81v2a3.19,3.19,0,0,1-1.34.85,5.41,5.41,0,0,1-1.78.3,4.56,4.56,0,0,1-2.36-.61,4.44,4.44,0,0,1-1.67-1.66,5,5,0,0,1,0-4.83,4.44,4.44,0,0,1,1.67-1.66,4.65,4.65,0,0,1,2.36-.6,5.41,5.41,0,0,1,1.78.3,3,3,0,0,1,1.34.85v1.95a2.21,2.21,0,0,0-.67-.82,3.75,3.75,0,0,0-1.1-.6,4,4,0,0,0-1.35-.22,3,3,0,0,0-1.57.41,2.87,2.87,0,0,0-1.1,1.14,3.49,3.49,0,0,0-.4,1.67,3.41,3.41,0,0,0,.4,1.65"/><path class="cls-2" d="M377.3,224.11a1.07,1.07,0,0,1,.76-.32,1,1,0,0,1,.76.32,1,1,0,0,1,.31.76,1.1,1.1,0,0,1-.31.75,1,1,0,0,1-.76.32,1.09,1.09,0,0,1-1.08-1.07,1,1,0,0,1,.32-.76m1.54,13.43h-1.56v-9h1.56Z"/><path class="cls-2" d="M383.31,237.14a4,4,0,0,1-1.5-1.65,5.71,5.71,0,0,1,0-4.89,4,4,0,0,1,1.56-1.64,4.55,4.55,0,0,1,2.33-.58,4.41,4.41,0,0,1,2.27.55,3.61,3.61,0,0,1,1.45,1.59A5.51,5.51,0,0,1,390,233a2.72,2.72,0,0,1,0,.28c0,.1,0,.16,0,.19h-7.66v-1.33h6.43l-.62.9a1.54,1.54,0,0,0,.12-.3,1.28,1.28,0,0,0,.06-.35,2.76,2.76,0,0,0-.33-1.38,2.36,2.36,0,0,0-.88-.92,2.6,2.6,0,0,0-1.33-.33,2.94,2.94,0,0,0-1.53.38,2.59,2.59,0,0,0-1,1.09,4.49,4.49,0,0,0-.36,1.75,4.37,4.37,0,0,0,.33,1.79,2.48,2.48,0,0,0,1,1.13,2.87,2.87,0,0,0,1.56.39,3.29,3.29,0,0,0,1.62-.39,3.4,3.4,0,0,0,1.19-1.22l1.27.8a4.71,4.71,0,0,1-1.77,1.7,5.12,5.12,0,0,1-2.51.58,4.11,4.11,0,0,1-2.21-.6"/><path class="cls-2" d="M395.22,230h-4.49v-1.46h4.49Zm-1.47,7.51h-1.56V225.45h1.56Z"/><polygon class="cls-2" points="398.05 241.83 396.29 241.83 398.75 236.28 395.31 228.57 397.17 228.57 400.01 235.59 399.37 235.51 402.14 228.57 403.89 228.57 398.05 241.83"/></g></svg>